<?xml version="1.0" encoding="UTF-8"?>
<svg id="Layer_2" data-name="Layer 2" xmlns="http://www.w3.org/2000/svg" viewBox="0 0 56.39 9.52">
  <defs>
    <style>
      .cls-1 {
        fill: #231f20;
      }
    </style>
  </defs>
  <g id="Layer_1-2" data-name="Layer 1">
    <path class="cls-1" d="M10.43,6.96c-.02,.72,.4,.91,.86,.91,.55,0,.89-.25,.92-.55h2.08v.08c-.19,1.27-1.22,2.12-3.09,2.12-2.21,0-3.14-1.32-2.9-3.12l.06-.46c.23-1.75,1.25-3.12,3.32-3.12s3.03,1.33,2.76,3.41l-.1,.72h-3.91Zm.2-1.56h1.7c.02-.61-.17-.91-.73-.91-.46,0-.83,.24-.97,.91Z"/>
    <path class="cls-1" d="M19.64,2.84l-.3,2.25h-.36c-.72,0-1.16,.24-1.33,.42l-.5,3.84h-2.21l.6-4.56,.11-1.8h1.99v.77c.47-.6,1.1-.94,1.82-.94,.06,0,.12,0,.18,.01Z"/>
    <path class="cls-1" d="M20.54,3h2.21l-.83,6.36h-2.21l.83-6.36Z"/>
    <path class="cls-1" d="M32.14,9.35h-2.76l-.19-6.36h2.16l-.22,3.96,1.24-3.96h2.64l.2,3.96,.82-3.96h2.16l-1.85,6.36h-2.76l-.19-4.08-1.25,4.08Z"/>
    <path class="cls-1" d="M40.22,6.96c-.02,.72,.4,.91,.86,.91,.55,0,.89-.25,.92-.55h2.08v.08c-.19,1.27-1.22,2.12-3.09,2.12-2.21,0-3.14-1.32-2.9-3.12l.06-.46c.23-1.75,1.25-3.12,3.32-3.12s3.03,1.33,2.76,3.41l-.1,.72h-3.91Zm.2-1.56h1.7c.02-.61-.17-.91-.73-.91-.46,0-.83,.24-.97,.91Z"/>
    <path class="cls-1" d="M46.94,6.96c-.02,.72,.4,.91,.86,.91,.55,0,.89-.25,.92-.55h2.08v.08c-.19,1.27-1.22,2.12-3.09,2.12-2.21,0-3.14-1.32-2.9-3.12l.06-.46c.23-1.75,1.25-3.12,3.32-3.12s3.03,1.33,2.76,3.41l-.1,.72h-3.91Zm.2-1.56h1.7c.02-.61-.17-.91-.73-.91-.46,0-.83,.24-.97,.91Z"/>
    <path class="cls-1" d="M56.14,4.92l.25-1.92h-1.52l.17-1.31,.23-1.69H20.9l-.25,1.97h5.1l-.97,7.39h2.28l.97-7.39h24.78l-.14,1.03h-.96l-.25,1.92h.96l-.28,2.1c-.24,1.86,.7,2.51,2.22,2.51,.6,0,.97-.11,1.09-.17l.23-1.8c-.06,.02-.37,.07-.56,.07-.5,0-.83-.13-.73-.85l.24-1.86h1.52Z"/>
    <path class="cls-1" d="M7.08,9.35h-2.4l-1.91-5.16-.18,1.8-.43,3.36H0L1.22,0H3.62l1.91,5.16,.17-1.8,.44-3.36h2.16l-1.22,9.35Z"/>
  </g>
</svg>